<!-- Generator: Adobe Illustrator 19.0.0, SVG Export Plug-In  -->
<svg version="1.1"
  xmlns="http://www.w3.org/2000/svg" xmlns:xlink="http://www.w3.org/1999/xlink" xmlns:a="http://ns.adobe.com/AdobeSVGViewerExtensions/3.0/"
  x="0px" y="0px" width="17.8px" height="29.1px" viewBox="0 0 17.8 29.1" style="enable-background:new 0 0 17.8 29.1;"
  xml:space="preserve">
<style type="text/css">
 .st0{fill:#3C92CA;}
 .st1{fill:#FFFFFF;}
</style>
<defs>
</defs>
<g id="XMLID_24_">
 <path id="XMLID_44_" class="st0" d="M0.6,24.5H17v2.8c0,0.5-0.4,0.9-0.9,0.9H1.5c-0.5,0-0.9-0.4-0.9-0.9V24.5z M0.6,24.5"/>
 <path id="XMLID_41_" class="st0" d="M17.1,4.3H0.6V1.7c0-0.7,0.5-1.2,1.2-1.2h14.1c0.7,0,1.2,0.5,1.2,1.2V4.3z M17.1,4.3"/>
 <path id="XMLID_38_" class="st1" d="M7.8,27.1h2.4c0.3,0,0.5-0.2,0.5-0.5c0-0.3-0.2-0.5-0.5-0.5H7.8c-0.3,0-0.5,0.2-0.5,0.5
  C7.2,26.8,7.5,27.1,7.8,27.1L7.8,27.1z M7.8,27.1"/>
 <path id="XMLID_33_" d="M17.8,25.9V3.1c0-1.7-1.4-3.1-3.1-3.1H3.1C1.4,0,0,1.4,0,3.1v19.2c0,0.3,0.2,0.5,0.5,0.5
  c0.3,0,0.5-0.2,0.5-0.5V5h15.6v18.8H0.8l-0.1,0c-0.2,0-0.3,0-0.5,0.1C0.1,24,0,24.2,0,24.3v1.6c0,1.7,1.4,3.2,3.1,3.2h11.6
  C16.4,29.1,17.8,27.6,17.8,25.9L17.8,25.9z M16.7,25.9c0,1.1-0.9,2.1-2,2.1H3.1c-1.1,0-2-1-2-2.1v-1h15.6L16.7,25.9L16.7,25.9z
   M1.1,3.9V3.1c0-1.1,0.9-2,2-2h11.6c1.1,0,2,0.9,2,2v0.9H1.1z M1.1,3.9"/>
 <path id="XMLID_29_" d="M6,19.4 M11.9,19.4L11.9,19.4 M11.9,19.4"/>
 <path id="XMLID_27_" d="M7.4,20.7"/>
 <path id="XMLID_25_" d="M4.1,15.7"/>
</g>
</svg>