<!-- Generator: Adobe Illustrator 19.0.0, SVG Export Plug-In  -->
<svg version="1.1"
  xmlns="http://www.w3.org/2000/svg" xmlns:xlink="http://www.w3.org/1999/xlink" xmlns:a="http://ns.adobe.com/AdobeSVGViewerExtensions/3.0/"
  x="0px" y="0px" width="18.6px" height="26.5px" viewBox="0 0 18.6 26.5" style="enable-background:new 0 0 18.6 26.5;"
  xml:space="preserve">
<style type="text/css">
 .st0{fill:#3C92CA;}
</style>
<defs>
</defs>
<g id="XMLID_15_">
 <path id="XMLID_28_" class="st0" d="M9.2,13L9.2,13c4.1,0,3.5-5.4,3.5-5.4c-0.2-3.6-3.2-3.6-3.5-3.6c-0.3,0-3.3,0-3.5,3.6
  C5.7,7.5,5.2,12.9,9.2,13L9.2,13z M9.2,13"/>
 <path id="XMLID_22_" d="M9.3,0C4.2,0,0,4.2,0,9.3c0,2.4,1,4.7,2.5,6.3c0,0,0.1,0.1,0.1,0.1c1.7,1.8,4.1,2.8,6.7,2.8
  c5.1,0,9.3-4.2,9.3-9.3C18.6,4.2,14.4,0,9.3,0L9.3,0z M3.9,15.6c2.5-0.8,3.4-1.8,3.7-2.5c0.5,0.2,1,0.3,1.6,0.3h0.1
  c0.6,0,1.2-0.1,1.7-0.4c0.3,0.6,1.2,1.7,3.8,2.5c-1.5,1.3-3.4,2-5.4,2C7.2,17.6,5.3,16.9,3.9,15.6L3.9,15.6z M9.2,12.5L9.2,12.5
  c-0.9,0-1.6-0.3-2-0.8c-1.2-1.4-1-4-1-4.1v0c0.1-2.9,2.3-3.1,2.9-3.1h0.2c0.6,0,2.8,0.2,2.9,3.1v0c0,0,0.3,2.7-1,4.1
  C10.8,12.2,10.1,12.5,9.2,12.5L9.2,12.5z M15.5,14.8c-3.6-1-3.7-2.3-3.7-2.3v0h-0.1c0.1-0.1,0.2-0.1,0.2-0.2
  c1.5-1.7,1.2-4.5,1.2-4.8c-0.1-3-2.2-4-3.9-4H9.1c-1.7,0-3.7,1.1-3.9,4c0,0.3-0.3,3.1,1.2,4.8c0.1,0.1,0.2,0.2,0.3,0.3
  c-0.1,0.3-0.6,1.3-3.7,2.2C1.8,13.3,1,11.4,1,9.3C1,4.7,4.7,1,9.3,1c4.6,0,8.3,3.7,8.3,8.3C17.6,11.4,16.8,13.3,15.5,14.8
  L15.5,14.8z M15.5,14.8"/>
 <path id="XMLID_19_" d="M16.6,22.3c0-0.3-0.2-0.5-0.5-0.5H2.5C2.2,21.8,2,22,2,22.3c0,0.3,0.2,0.5,0.5,0.5h13.6
  C16.4,22.8,16.6,22.5,16.6,22.3L16.6,22.3z M16.6,22.3"/>
 <path id="XMLID_16_" d="M14.2,26c0-0.3-0.2-0.5-0.5-0.5H4.9c-0.3,0-0.5,0.2-0.5,0.5c0,0.3,0.2,0.5,0.5,0.5h8.9
  C14,26.5,14.2,26.3,14.2,26L14.2,26z M14.2,26"/>
</g>
</svg>