<!-- Generator: Adobe Illustrator 19.0.0, SVG Export Plug-In  -->
<svg version="1.1"
  xmlns="http://www.w3.org/2000/svg" xmlns:xlink="http://www.w3.org/1999/xlink" xmlns:a="http://ns.adobe.com/AdobeSVGViewerExtensions/3.0/"
  x="0px" y="0px" width="89.6px" height="79.8px" viewBox="0 0 89.6 79.8" style="enable-background:new 0 0 89.6 79.8;"
  xml:space="preserve">
<style type="text/css">
 .st0{fill:#3C92CA;}
 .st1{fill:#A7A9AC;}
</style>
<defs>
</defs>
<g id="XMLID_38_">
 <path id="XMLID_87_" d="M46.8,16.9c0.8,0,1.5-0.7,1.5-1.5V9c0-4.6-3.7-8.3-8.3-8.3H8.6C4,0.7,0.3,4.5,0.3,9v51.1
  c0,0.8,0.7,1.5,1.5,1.5c0.8,0,1.5-0.7,1.5-1.5V9c0-3,2.4-5.4,5.4-5.4H40c3,0,5.4,2.4,5.4,5.4v1.7H8.5c-0.8,0-1.5,0.7-1.5,1.5
  c0,0.8,0.7,1.5,1.5,1.5h36.9v1.7C45.4,16.2,46,16.9,46.8,16.9L46.8,16.9z M46.8,16.9"/>
 <path id="XMLID_84_" d="M47.9,71.1V57.7c0-0.8-0.7-1.5-1.5-1.5c-0.8,0-1.5,0.7-1.5,1.5v13.5c0,2.8-1.8,5.8-4.9,5.8H8.6
  c-3,0-5.7-2.7-5.7-5.8v-2.4h35.8c0.8,0,1.5-0.7,1.5-1.5c0-0.8-0.7-1.5-1.5-1.5H1.5c-0.8,0-1.5,0.7-1.5,1.5v3.8c0,4.6,4,8.7,8.6,8.7
  H40C44.4,79.8,47.9,76,47.9,71.1L47.9,71.1z M47.9,71.1"/>
 <g id="XMLID_72_">
  <path id="XMLID_78_" d="M45.4,37.3 M46.8,35.8L46.8,35.8 M47.9,38.3 M46.8,35.8"/>
  <path id="XMLID_73_" d="M52.3,35.8L52.3,35.8 M53.8,37.3 M51.3,38.3 M52.3,35.8"/>
 </g>
 <g id="XMLID_39_">
  <path id="XMLID_61_" d="M81.2,1.5 M82.7,0L82.7,0 M84.2,1.5 M82.7,2.9 M82.7,0"/>
  <path id="XMLID_54_" d="M86.7,1.5 M88.1,0L88.1,0 M89.6,1.5 M88.1,0"/>
  <path id="XMLID_48_" d="M77.2,0 M78.3,0.4 M77.2,2.9"/>
 </g>
</g>
<g id="XMLID_16_">
 <g id="XMLID_29_">
  <path id="XMLID_37_" class="st0" d="M41.7,53.1H25.4c-2.9,0-5.3-2.4-5.3-5.3V28c0-2.9,2.4-5.3,5.3-5.3h32.5c2.9,0,5.3,2.4,5.3,5.3
   v19.8c0,2.9-2.4,5.3-5.3,5.3H39.5"/>
  <path id="XMLID_33_" d="M25.4,54.3h32.5c3.6,0,6.5-2.9,6.5-6.6V28c0-3.6-2.9-6.6-6.5-6.6H25.4c-3.6,0-6.5,2.9-6.5,6.6v19.8
   C18.9,51.4,21.8,54.3,25.4,54.3L25.4,54.3z M21.3,28c0-2.3,1.9-4.1,4.1-4.1h32.5c2.3,0,4.1,1.9,4.1,4.1v19.8
   c0,2.3-1.9,4.1-4.1,4.1H25.4c-2.3,0-4.1-1.9-4.1-4.1V28z M21.3,28"/>
  <path id="XMLID_30_" d="M25.5,47.8c0.2,0.3,0.6,0.4,0.9,0.4c0.3,0,0.6-0.1,0.8-0.3l10.4-9.2l3.4,2.6c0.2,0.2,0.5,0.3,0.7,0.3
   c0.3,0,0.5-0.1,0.7-0.3l3.5-2.7l10.3,9.2c0.2,0.2,0.5,0.3,0.8,0.3c0.3,0,0.7-0.1,0.9-0.4c0.4-0.5,0.4-1.3-0.1-1.7l-9.9-8.9
   l9.9-7.7c0.5-0.4,0.6-1.2,0.2-1.7c-0.4-0.5-1.2-0.6-1.7-0.2L41.7,38.9l-3.4-2.7l-11.1-8.6c-0.5-0.4-1.3-0.3-1.7,0.2
   c-0.4,0.5-0.3,1.3,0.2,1.7l10,7.8l-10,8.8C25.1,46.6,25,47.3,25.5,47.8L25.5,47.8z M25.5,47.8"/>
 </g>
 <g id="XMLID_23_">
  <path id="XMLID_28_" class="st1" d="M67.6,25.5"/>
  <path id="XMLID_24_" d="M67.5,25.2c-0.2,0.1-0.3,0.3-0.2,0.5 M68.1,25.8 M68.5,27"/>
 </g>
 <g id="XMLID_17_">
  <path id="XMLID_22_" class="st1" d="M68.5,39.6"/>
  <path id="XMLID_18_" d="M68.3,39.7 M68.7,39.5 M68.7,39.5"/>
 </g>
</g>
</svg>