<!-- Generator: Adobe Illustrator 19.0.0, SVG Export Plug-In  -->
<svg version="1.1"
  xmlns="http://www.w3.org/2000/svg" xmlns:xlink="http://www.w3.org/1999/xlink" xmlns:a="http://ns.adobe.com/AdobeSVGViewerExtensions/3.0/"
  x="0px" y="0px" width="21.5px" height="24.7px" viewBox="0 0 21.5 24.7" style="enable-background:new 0 0 21.5 24.7;"
  xml:space="preserve">
<style type="text/css">
 .st0{fill:#FFFFFF;}
 .st1{fill:#3C92CA;}
 .st2{fill:#A7A9AC;}
</style>
<defs>
</defs>
<g id="XMLID_15_">
 <path id="XMLID_50_" class="st0" d="M14.6,5.1c0.3,0,0.5-0.2,0.5-0.5v-2c0-1.4-1.2-2.6-2.6-2.6H2.7C1.2,0,0.1,1.2,0.1,2.6v16
  c0,0.3,0.2,0.5,0.5,0.5C0.8,19,1,18.8,1,18.6v-16c0-0.9,0.8-1.7,1.7-1.7h9.8c0.9,0,1.7,0.8,1.7,1.7v0.5H2.6c-0.3,0-0.5,0.2-0.5,0.5
  s0.2,0.5,0.5,0.5h11.5v0.5C14.2,4.9,14.4,5.1,14.6,5.1L14.6,5.1z M14.6,5.1"/>
 <path id="XMLID_47_" class="st0" d="M15,22v-4.2c0-0.3-0.2-0.5-0.5-0.5c-0.3,0-0.5,0.2-0.5,0.5V22c0,0.9-0.6,1.8-1.5,1.8H2.7
  c-0.9,0-1.8-0.9-1.8-1.8v-0.7h11.2c0.3,0,0.5-0.2,0.5-0.5c0-0.3-0.2-0.5-0.5-0.5H0.5c-0.3,0-0.5,0.2-0.5,0.5V22
  c0,1.5,1.3,2.7,2.7,2.7h9.8C13.9,24.7,15,23.5,15,22L15,22z M15,22"/>
 <g id="XMLID_36_">
  <path id="XMLID_42_" d="M14.2,11.4 M14.6,11L14.6,11 M15,11.8 M14.6,11"/>
  <path id="XMLID_37_" d="M16.4,11L16.4,11 M16.8,11.4 M16,11.8 M16.4,11"/>
 </g>
 <path id="XMLID_35_" class="st1" d="M13,16.4H7.9c-0.9,0-1.7-0.8-1.7-1.7V8.5c0-0.9,0.8-1.7,1.7-1.7h10.2c0.9,0,1.7,0.8,1.7,1.7
  v6.2c0,0.9-0.8,1.7-1.7,1.7h-5.8"/>
 <path id="XMLID_31_" class="st0" d="M7.9,16.8h10.2c1.1,0,2-0.9,2-2V8.5c0-1.1-0.9-2-2-2H7.9c-1.1,0-2,0.9-2,2v6.2
  C5.9,15.8,6.8,16.8,7.9,16.8L7.9,16.8z M6.7,8.5c0-0.7,0.6-1.3,1.3-1.3h10.2c0.7,0,1.3,0.6,1.3,1.3v6.2c0,0.7-0.6,1.3-1.3,1.3H7.9
  c-0.7,0-1.3-0.6-1.3-1.3V8.5z M6.7,8.5"/>
 <path id="XMLID_28_" class="st0" d="M8,14.7c0.1,0.1,0.2,0.1,0.3,0.1c0.1,0,0.2,0,0.2-0.1l3.2-2.9l1.1,0.8c0.1,0.1,0.1,0.1,0.2,0.1
  c0.1,0,0.2,0,0.2-0.1l1.1-0.8l3.2,2.9c0.1,0.1,0.2,0.1,0.2,0.1c0.1,0,0.2,0,0.3-0.1c0.1-0.2,0.1-0.4,0-0.5l-3.1-2.8L18,9
  c0.2-0.1,0.2-0.4,0.1-0.5c-0.1-0.2-0.4-0.2-0.5-0.1L13,11.9L12,11.1L8.5,8.4C8.3,8.3,8.1,8.3,7.9,8.5C7.8,8.6,7.8,8.9,8,9l3.1,2.4
  L8,14.2C7.8,14.3,7.8,14.6,8,14.7L8,14.7z M8,14.7"/>
 <g id="XMLID_22_">
  <path id="XMLID_27_" class="st2" d="M21.1,7.8"/>
  <path id="XMLID_23_" d="M21.1,7.6C21,7.7,21,7.7,21,7.8 M21.3,7.8 M21.4,8.2"/>
 </g>
 <g id="XMLID_16_">
  <path id="XMLID_21_" class="st2" d="M21.4,12.2"/>
  <path id="XMLID_17_" d="M21.3,12.2 M21.5,12.1 M21.5,12.1"/>
 </g>
</g>
</svg>