<svg version="1.1"
  xmlns="http://www.w3.org/2000/svg" xmlns:xlink="http://www.w3.org/1999/xlink" xmlns:a="http://ns.adobe.com/AdobeSVGViewerExtensions/3.0/"
  x="0px" y="0px" width="83.8px" height="98.9px" viewBox="0 0 83.8 98.9" style="enable-background:new 0 0 83.8 98.9;"
  xml:space="preserve">
<style type="text/css">
 .st0{fill:#3C92CA;}
 .st1{clip-path:url(#XMLID_46_);fill:#3C92CA;}
 .st2{clip-path:url(#XMLID_46_);}
 .st3{clip-path:url(#XMLID_47_);fill:#3C92CA;}
 .st4{clip-path:url(#XMLID_47_);}
</style>
<defs>
</defs>
<g id="XMLID_15_">
 <path id="XMLID_43_" class="st0" d="M41.9,20L41.9,20c8.2-0.1,7-11,7-11c-0.3-7.3-6.4-7.2-7-7.2c-0.6,0-6.7-0.1-7,7.2
  C34.9,9.1,33.7,19.9,41.9,20C41.8,20,41.8,20,41.9,20L41.9,20z M41.9,20"/>
 <g id="XMLID_28_">
  <defs>
   <rect id="XMLID_29_" width="83.8" height="98.9"/>
  </defs>
  <clipPath id="XMLID_46_">
   <use xlink:href="#XMLID_29_"  style="overflow:visible;"/>
  </clipPath>
  <path id="XMLID_40_" class="st1" d="M41.9,33.5l5.3-7.2c0,0,3.7,1.5,6.7,3.7c0.8,0.6,1.1,0.9,1.9,1.6c1.7,1.7,1,11.4,0,14.9
   c-1,3.5-3.8,8.6-3.8,8.6c-0.6,1.3-0.9,2.7-1.1,4.1l-3.6,35.5c-0.1,1.1-1.1,2-2.2,2h-6.3c-1.1,0-2.1-0.9-2.2-2l-3.6-35.5
   c-0.1-1.4-0.5-2.8-1.1-4.1c0,0-2.8-5.1-3.8-8.6c-1-3.5-1.7-13.2,0-14.9c0.7-0.7,1.1-1,1.9-1.6c3-2.2,6.7-3.7,6.7-3.7L41.9,33.5z
    M41.9,33.5"/>
  <path id="XMLID_37_" class="st2" d="M1,50.2c0.9,3.3,3.3,7.8,3.7,8.4c0.4,1,0.7,2.1,0.8,3.2l3.4,33.3c0.2,2,1.9,3.5,3.9,3.5h5.9
   c2,0,3.7-1.5,3.9-3.5L26,61.8c0.1-1.1,0.4-2.2,0.9-3.3c0.4-0.9,0-2-0.9-2.4c-0.9-0.4-2,0-2.4,0.9c-0.6,1.4-1,2.9-1.1,4.4L19,94.8
   c0,0.1-0.1,0.2-0.2,0.2h-5.9c-0.1,0-0.2-0.1-0.2-0.2L9.2,61.4C9,59.9,8.6,58.4,8,57c0-0.1,0-0.1-0.1-0.2c0,0-2.6-4.6-3.4-7.7
   c-0.9-3.4-1.2-10.9-0.4-12.3c0.6-0.6,0.9-0.8,1.5-1.3c1.6-1.2,3.4-2.1,4.6-2.7l4.1,5.6c0.3,0.5,0.9,0.7,1.5,0.7
   c0.6,0,1.1-0.3,1.5-0.7l4.9-6.8c0.6-0.8,0.4-2-0.4-2.6c-0.8-0.6-2-0.4-2.6,0.4l-3.5,4.8l-3.4-4.7c-0.5-0.7-1.4-0.9-2.2-0.6
   c-0.1,0.1-3.7,1.5-6.7,3.7c-0.8,0.6-1.2,1-2,1.7C-1.1,37,0.3,47.7,1,50.2L1,50.2z M1,50.2"/>
  <path id="XMLID_33_" class="st2" d="M15.6,26.6h0.3c2.3-0.1,4.3-0.9,5.7-2.5c3-3.4,2.6-9,2.5-9.7C23.8,8.2,19.5,6,15.9,6h-0.3
   C12,6,7.7,8.2,7.3,14.4c-0.1,0.7-0.5,6.3,2.5,9.7C11.3,25.7,13.2,26.6,15.6,26.6L15.6,26.6z M11,14.7v-0.1c0.2-4.3,3-5,4.6-5h0.3
   c1.6,0,4.4,0.6,4.6,5v0.1c0.1,1.3,0.1,5.1-1.6,7c-0.7,0.8-1.8,1.3-3.1,1.3h0c-1.3,0-2.4-0.4-3.1-1.3C10.9,19.8,10.9,16,11,14.7
   L11,14.7z M11,14.7"/>
  <path id="XMLID_30_" class="st2" d="M57.9,56.1c-0.9,0.4-1.3,1.5-0.9,2.4c0.5,1,0.7,2.1,0.9,3.3l3.4,33.3c0.2,2,1.9,3.5,3.9,3.5
   H71c2,0,3.7-1.5,3.9-3.5l3.4-33.3c0.1-1.1,0.4-2.2,0.8-3.2c0.4-0.7,2.8-5.1,3.7-8.4c0.7-2.5,2.1-13.2-0.5-15.7
   c-0.7-0.7-1.1-1.1-2-1.7c-3-2.2-6.5-3.6-6.7-3.7c-0.8-0.3-1.7-0.1-2.2,0.6L68,34.3l-3.5-4.7c-0.6-0.8-1.7-1-2.6-0.4
   c-0.8,0.6-1,1.7-0.4,2.6l4.9,6.8c0.3,0.5,0.9,0.7,1.5,0.7c0.6,0,1.1-0.3,1.5-0.7l4.1-5.6c1.2,0.6,3,1.5,4.6,2.7
   c0.6,0.4,0.9,0.7,1.5,1.3c0.8,1.3,0.5,8.8-0.4,12.3c-0.8,3.1-3.4,7.7-3.4,7.7c0,0-0.1,0.1-0.1,0.2c-0.6,1.4-1,2.9-1.1,4.4
   l-3.4,33.3c0,0.1-0.1,0.2-0.2,0.2H65c-0.1,0-0.2-0.1-0.2-0.2l-3.4-33.3c-0.2-1.5-0.5-3-1.1-4.4C59.8,56.1,58.8,55.7,57.9,56.1
   L57.9,56.1z M57.9,56.1"/>
 </g>
 <path id="XMLID_24_" d="M67.8,26.6h0.3c2.3,0,4.3-0.9,5.7-2.5c3-3.4,2.6-9,2.5-9.7C76.1,8.2,71.8,6,68.2,6h-0.3
  c-3.6,0-7.9,2.2-8.2,8.4c-0.1,0.7-0.5,6.3,2.5,9.7C63.5,25.7,65.5,26.6,67.8,26.6L67.8,26.6z M63.2,14.7v-0.1c0.2-4.3,3-5,4.6-5
  h0.3c1.6,0,4.4,0.6,4.6,5v0.1c0.1,1.3,0.1,5.1-1.6,7c-0.7,0.8-1.8,1.2-3.1,1.3h0c-1.3,0-2.4-0.4-3.1-1.3
  C63.1,19.8,63.1,16,63.2,14.7L63.2,14.7z M63.2,14.7"/>
 <path id="XMLID_20_" d="M26.7,30.4C24,33.1,25.6,44.4,26.3,47c1,3.5,3.5,8.3,3.9,9c0.5,1.1,0.8,2.3,0.9,3.4L34.7,95
  c0.2,2.1,1.9,3.6,4,3.6H45c2.1,0,3.8-1.6,4-3.6l3.6-35.5c0.1-1.2,0.4-2.4,0.9-3.4c0.4-0.7,3-5.4,3.9-9c0.7-2.6,2.3-14-0.5-16.7
  c-0.7-0.7-1.2-1.1-2.1-1.8c-3.2-2.3-7-3.9-7.1-3.9c-0.8-0.3-1.7-0.1-2.2,0.6l-3.8,5.2l-3.8-5.2c-0.5-0.7-1.4-0.9-2.2-0.6
  c-0.2,0.1-3.9,1.6-7.1,3.9C27.9,29.2,27.5,29.6,26.7,30.4L26.7,30.4z M29.4,32.9c0.7-0.7,0.9-0.9,1.6-1.4c1.7-1.3,3.7-2.3,5-2.9
  l4.4,6c0.3,0.5,0.9,0.7,1.5,0.7c0.6,0,1.1-0.3,1.5-0.7l4.4-6c1.3,0.6,3.3,1.6,5,2.9c0.7,0.5,0.9,0.7,1.6,1.4
  c0.8,1.4,0.6,9.4-0.4,13.2c-0.9,3.3-3.6,8.2-3.6,8.2c0,0-0.1,0.1-0.1,0.2c-0.6,1.5-1.1,3-1.2,4.6l-3.6,35.5c0,0.2-0.2,0.3-0.4,0.3
  h-6.3c-0.2,0-0.4-0.1-0.4-0.3l-3.6-35.5c-0.2-1.6-0.6-3.2-1.2-4.6c0-0.1,0-0.1-0.1-0.2c0,0-2.7-4.9-3.6-8.2
  C28.8,42.3,28.5,34.3,29.4,32.9L29.4,32.9z M29.4,32.9"/>
 <path id="XMLID_16_" d="M41.7,21.8H42c2.5,0,4.5-0.9,6-2.6c3.2-3.6,2.7-9.6,2.6-10.3c-0.3-6.5-4.9-8.9-8.7-8.9h-0.4
  c-3.8,0-8.3,2.3-8.7,8.9c-0.1,0.7-0.5,6.7,2.6,10.3C37.2,20.9,39.2,21.8,41.7,21.8L41.7,21.8z M36.7,9.3V9.1c0.2-4.9,3.6-5.4,5-5.4
  H42c1.4,0,4.8,0.5,5,5.4v0.1c0.1,1.4,0.1,5.5-1.7,7.5c-0.8,0.9-2,1.4-3.4,1.4h-0.1c-1.5,0-2.6-0.5-3.4-1.4
  C36.6,14.7,36.5,10.6,36.7,9.3L36.7,9.3z M36.7,9.3"/>
</g>
</svg>