<!-- Generator: Adobe Illustrator 19.0.0, SVG Export Plug-In  -->
<svg version="1.1"
  xmlns="http://www.w3.org/2000/svg" xmlns:xlink="http://www.w3.org/1999/xlink" xmlns:a="http://ns.adobe.com/AdobeSVGViewerExtensions/3.0/"
  x="0px" y="0px" width="21.8px" height="25.7px" viewBox="0 0 21.8 25.7" style="enable-background:new 0 0 21.8 25.7;"
  xml:space="preserve">
<style type="text/css">
 .st0{fill:#3C92CA;}
 .st1{clip-path:url(#XMLID_46_);fill:#3C92CA;}
 .st2{clip-path:url(#XMLID_46_);fill:#FFFFFF;}
 .st3{fill:#FFFFFF;}
 .st4{clip-path:url(#XMLID_47_);fill:#3C92CA;}
 .st5{clip-path:url(#XMLID_47_);fill:#FFFFFF;}
</style>
<defs>
</defs>
<g id="XMLID_15_">
 <path id="XMLID_43_" class="st0" d="M10.9,5.2L10.9,5.2c2.1,0,1.8-2.9,1.8-2.9c-0.1-1.9-1.7-1.9-1.8-1.9c-0.2,0-1.7,0-1.8,1.9
  C9.1,2.4,8.8,5.2,10.9,5.2C10.9,5.2,10.9,5.2,10.9,5.2L10.9,5.2z M10.9,5.2"/>
 <g id="XMLID_28_">
  <defs>
   <rect id="XMLID_29_" y="0" width="21.8" height="25.7"/>
  </defs>
  <clipPath id="XMLID_46_">
   <use xlink:href="#XMLID_29_"  style="overflow:visible;"/>
  </clipPath>
  <path id="XMLID_40_" class="st1" d="M10.9,8.7l1.4-1.9c0,0,1,0.4,1.8,1c0.2,0.2,0.3,0.2,0.5,0.4c0.4,0.4,0.3,3,0,3.9
   c-0.3,0.9-1,2.2-1,2.2c-0.1,0.3-0.2,0.7-0.3,1.1l-0.9,9.3c0,0.3-0.3,0.5-0.6,0.5h-1.6c-0.3,0-0.5-0.2-0.6-0.5l-0.9-9.3
   c0-0.4-0.1-0.7-0.3-1.1c0,0-0.7-1.3-1-2.2c-0.3-0.9-0.4-3.4,0-3.9C7.5,8.1,7.6,8,7.8,7.8c0.8-0.6,1.8-1,1.8-1L10.9,8.7z M10.9,8.7
   "/>
  <path id="XMLID_37_" class="st2" d="M0.3,13.1c0.2,0.9,0.9,2,1,2.2c0.1,0.3,0.2,0.5,0.2,0.8l0.9,8.7c0.1,0.5,0.5,0.9,1,0.9h1.5
   c0.5,0,1-0.4,1-0.9l0.9-8.7c0-0.3,0.1-0.6,0.2-0.8c0.1-0.2,0-0.5-0.2-0.6c-0.2-0.1-0.5,0-0.6,0.2C6,15.2,5.9,15.6,5.8,16l-0.9,8.7
   c0,0,0,0.1-0.1,0.1H3.3c0,0-0.1,0-0.1-0.1L2.4,16c0-0.4-0.1-0.8-0.3-1.1c0,0,0,0,0,0c0,0-0.7-1.2-0.9-2C0.9,11.9,0.9,10,1.1,9.6
   c0.2-0.2,0.2-0.2,0.4-0.3C1.9,9,2.3,8.7,2.7,8.6L3.7,10c0.1,0.1,0.2,0.2,0.4,0.2c0.2,0,0.3-0.1,0.4-0.2l1.3-1.8
   c0.2-0.2,0.1-0.5-0.1-0.7C5.4,7.4,5.2,7.5,5,7.7L4.1,8.9L3.2,7.7C3.1,7.5,2.8,7.5,2.6,7.5c0,0-1,0.4-1.7,1C0.7,8.7,0.6,8.8,0.4,9
   C-0.3,9.6,0.1,12.4,0.3,13.1L0.3,13.1z M0.3,13.1"/>
  <path id="XMLID_33_" class="st2" d="M4.1,6.9L4.1,6.9c0.7,0,1.2-0.2,1.6-0.6c0.8-0.9,0.7-2.3,0.7-2.5C6.2,2.1,5.1,1.6,4.1,1.6H4.1
   C3.1,1.6,2,2.1,1.9,3.7c0,0.2-0.1,1.7,0.6,2.5C2.9,6.7,3.4,6.9,4.1,6.9L4.1,6.9z M2.9,3.8L2.9,3.8c0.1-1.2,0.8-1.3,1.2-1.3h0.1
   c0.4,0,1.1,0.2,1.2,1.3v0c0,0.3,0,1.3-0.4,1.8C4.7,5.9,4.4,6,4.1,6h0C3.7,6,3.5,5.9,3.3,5.6C2.8,5.1,2.8,4.2,2.9,3.8L2.9,3.8z
    M2.9,3.8"/>
  <path id="XMLID_30_" class="st2" d="M15.1,14.6c-0.2,0.1-0.4,0.4-0.2,0.6c0.1,0.3,0.2,0.6,0.2,0.8l0.9,8.7c0.1,0.5,0.5,0.9,1,0.9
   h1.5c0.5,0,1-0.4,1-0.9l0.9-8.7c0-0.3,0.1-0.6,0.2-0.8c0.1-0.2,0.7-1.3,1-2.2c0.2-0.6,0.6-3.4-0.1-4.1c-0.2-0.2-0.3-0.3-0.5-0.4
   c-0.8-0.6-1.7-0.9-1.7-1c-0.2-0.1-0.4,0-0.6,0.2l-0.9,1.2l-0.9-1.2c-0.2-0.2-0.5-0.3-0.7-0.1c-0.2,0.2-0.3,0.5-0.1,0.7l1.3,1.8
   c0.1,0.1,0.2,0.2,0.4,0.2c0.2,0,0.3-0.1,0.4-0.2l1.1-1.5c0.3,0.1,0.8,0.4,1.2,0.7c0.2,0.1,0.2,0.2,0.4,0.3
   c0.2,0.3,0.1,2.3-0.1,3.2c-0.2,0.8-0.9,2-0.9,2c0,0,0,0,0,0c-0.2,0.4-0.3,0.7-0.3,1.1l-0.9,8.7c0,0,0,0.1-0.1,0.1h-1.5
   c0,0-0.1,0-0.1-0.1L16,16c0-0.4-0.1-0.8-0.3-1.1C15.6,14.6,15.3,14.5,15.1,14.6L15.1,14.6z M15.1,14.6"/>
 </g>
 <path id="XMLID_24_" class="st3" d="M17.7,6.9L17.7,6.9c0.7,0,1.2-0.2,1.6-0.6c0.8-0.9,0.7-2.3,0.6-2.5c-0.1-1.6-1.2-2.2-2.1-2.2
  h-0.1c-0.9,0-2.1,0.6-2.1,2.2c0,0.2-0.1,1.7,0.6,2.5C16.5,6.7,17,6.9,17.7,6.9L17.7,6.9z M16.5,3.8L16.5,3.8
  c0.1-1.2,0.8-1.3,1.2-1.3h0.1c0.4,0,1.1,0.2,1.2,1.3v0c0,0.3,0,1.3-0.4,1.8C18.3,5.9,18.1,6,17.7,6h0c-0.4,0-0.6-0.1-0.8-0.3
  C16.4,5.1,16.4,4.2,16.5,3.8L16.5,3.8z M16.5,3.8"/>
 <path id="XMLID_20_" class="st3" d="M7,7.9c-0.7,0.7-0.3,3.7-0.1,4.3c0.3,0.9,0.9,2.2,1,2.3c0.1,0.3,0.2,0.6,0.2,0.9L9,24.7
  c0.1,0.5,0.5,0.9,1,0.9h1.6c0.5,0,1-0.4,1-0.9l0.9-9.3c0-0.3,0.1-0.6,0.2-0.9c0.1-0.2,0.8-1.4,1-2.3c0.2-0.7,0.6-3.6-0.1-4.3
  c-0.2-0.2-0.3-0.3-0.5-0.5c-0.8-0.6-1.8-1-1.9-1c-0.2-0.1-0.4,0-0.6,0.2l-1,1.4l-1-1.4C9.8,6.4,9.6,6.3,9.4,6.4c0,0-1,0.4-1.9,1
  C7.3,7.6,7.2,7.7,7,7.9L7,7.9z M7.6,8.6c0.2-0.2,0.2-0.2,0.4-0.4c0.5-0.3,1-0.6,1.3-0.8L10.5,9c0.1,0.1,0.2,0.2,0.4,0.2
  c0.2,0,0.3-0.1,0.4-0.2l1.1-1.6c0.3,0.2,0.9,0.4,1.3,0.8c0.2,0.1,0.2,0.2,0.4,0.4C14.4,8.9,14.3,11,14,12c-0.2,0.9-0.9,2.1-0.9,2.1
  c0,0,0,0,0,0c-0.2,0.4-0.3,0.8-0.3,1.2l-0.9,9.3c0,0.1,0,0.1-0.1,0.1h-1.6c-0.1,0-0.1,0-0.1-0.1L9,15.4c0-0.4-0.1-0.8-0.3-1.2
  c0,0,0,0,0,0c0,0-0.7-1.3-0.9-2.1C7.5,11,7.4,8.9,7.6,8.6L7.6,8.6z M7.6,8.6"/>
 <path id="XMLID_16_" class="st3" d="M10.9,5.7L10.9,5.7c0.7,0,1.3-0.2,1.7-0.7c0.8-0.9,0.7-2.5,0.7-2.7C13.1,0.6,11.9,0,10.9,0
  h-0.1c-1,0-2.2,0.6-2.3,2.3c0,0.2-0.1,1.7,0.7,2.7C9.7,5.4,10.2,5.7,10.9,5.7L10.9,5.7z M9.5,2.4L9.5,2.4C9.6,1.1,10.5,1,10.9,1
  h0.1c0.4,0,1.2,0.1,1.3,1.4v0c0,0.4,0,1.4-0.5,2c-0.2,0.2-0.5,0.4-0.9,0.4h0c-0.4,0-0.7-0.1-0.9-0.4C9.5,3.8,9.5,2.8,9.5,2.4
  L9.5,2.4z M9.5,2.4"/>
</g>
</svg>