<!-- Generator: Adobe Illustrator 19.0.0, SVG Export Plug-In  -->
<svg version="1.1"
  xmlns="http://www.w3.org/2000/svg" xmlns:xlink="http://www.w3.org/1999/xlink" xmlns:a="http://ns.adobe.com/AdobeSVGViewerExtensions/3.0/"
  x="0px" y="0px" width="42.4px" height="22.4px" viewBox="0 0 42.4 22.4" style="enable-background:new 0 0 42.4 22.4;"
  xml:space="preserve">
<style type="text/css">
 .st0{fill:#FFFFFF;}
</style>
<defs>
</defs>
<g id="XMLID_15_">
 <g id="XMLID_32_">
  <g id="XMLID_34_">
   <path id="XMLID_39_" class="st0" d="M1.1,0 M0,0"/>
   <path id="XMLID_35_" class="st0" d="M23.3,21.6V2.7c0-0.4-0.4-0.8-0.8-0.8H3.6c-0.4,0-0.8,0.4-0.8,0.8v18.9
    c0,0.4,0.4,0.8,0.8,0.8h18.9C22.9,22.4,23.3,22,23.3,21.6L23.3,21.6z M21.7,20.8H4.4V3.5h17.3V20.8z M21.7,20.8"/>
  </g>
 </g>
 <g id="XMLID_16_">
  <g id="XMLID_18_">
   <g id="XMLID_19_">
    <g id="XMLID_20_">
     <path id="XMLID_21_" class="st0" d="M39,10.1l-0.1-6.5l2.1,2c0.3,0.3,0.9,0.3,1.2,0c0.2-0.2,0.2-0.4,0.2-0.6
      c0-0.2-0.1-0.4-0.3-0.6L38.6,1c-0.3-0.3-0.9-0.3-1.2,0L34,4.5c-0.3,0.3-0.3,0.9,0,1.2c0.3,0.3,0.9,0.3,1.2,0l2-2.1l0.1,6.5
      c0,3.8-3.1,7-6.9,7l-4.1,0c-0.5,0-0.8,0.4-0.8,0.8c0,0.5,0.4,0.8,0.8,0.8l4.1,0C35.2,18.8,39,14.9,39,10.1L39,10.1z M39,10.1"
      />
    </g>
   </g>
  </g>
 </g>
</g>
</svg>