<!-- Generator: Adobe Illustrator 19.0.0, SVG Export Plug-In  -->
<svg version="1.1"
  xmlns="http://www.w3.org/2000/svg" xmlns:xlink="http://www.w3.org/1999/xlink" xmlns:a="http://ns.adobe.com/AdobeSVGViewerExtensions/3.0/"
  x="0px" y="0px" width="88.7px" height="82.2px" viewBox="0 0 88.7 82.2" style="enable-background:new 0 0 88.7 82.2;"
  xml:space="preserve">
<style type="text/css">
 .st0{fill:none;}
 .st1{fill:#3C92CA;}
 .st2{fill:#FFFFFF;}
</style>
<defs>
</defs>
<g id="XMLID_15_">
 <polygon id="XMLID_35_" class="st0" points="73.3,74.5 79.1,78.2 84.9,65.9 78.3,62.6  "/>
 <polygon id="XMLID_34_" class="st1" points="35.3,31.9 35.3,28.2 32.8,28.2  "/>
 <polygon id="XMLID_33_" class="st1" points="35.3,25.4 35.3,24.2 30.2,24.2 31,25.4  "/>
 <polygon id="XMLID_32_" class="st1" points="27.4,24.2 23.5,24.2 23.5,25.4 28.3,25.4  "/>
 <polygon id="XMLID_31_" class="st1" points="23.5,18.3 23.5,21.5 25.6,21.5  "/>
 <path id="XMLID_28_" class="st1" d="M30.1,49.6c12.8,0,23.1-10.4,23.1-23.1S42.9,3.3,30.1,3.3C17.4,3.3,7,13.7,7,26.4
  S17.4,49.6,30.1,49.6z M20.4,24.2c-1.3,0-2.4-0.6-2.4-1.4c0-0.8,1.1-1.4,2.4-1.4h0.9v-7c0-0.6,0.5-1.1,1.1-1.1
  c0.4,0,0.7,0.2,0.9,0.5l5.1,7.6h6.9v-7c0-0.6,0.5-1.1,1.1-1.1c0.6,0,1.1,0.5,1.1,1.1v7H38c1.3,0,2.4,0.6,2.4,1.4
  c0,0.8-1.1,1.4-2.4,1.4h-0.5v1.2H38c1.3,0,2.4,0.6,2.4,1.4c0,0.8-1.1,1.4-2.4,1.4h-0.5v7.4c0,0.6-0.5,1.2-1.2,1.2
  c-0.4,0-0.7-0.2-0.9-0.5l-5.3-8.1h-6.6v7.4c0,0.6-0.5,1.1-1.1,1.1c-0.6,0-1.1-0.5-1.1-1.1v-7.4h-0.9c-1.3,0-2.4-0.6-2.4-1.4
  c0-0.8,1.1-1.4,2.4-1.4h0.9v-1.2H20.4z"/>
 <path id="XMLID_25_" class="st2" d="M88.7,64.9c0-0.1,0-0.1,0-0.2c0-0.1,0-0.1,0-0.1c0-0.1,0-0.1-0.1-0.1c0-0.1,0-0.1-0.1-0.1
  c0-0.1-0.1-0.1-0.1-0.1c0,0-0.1-0.1-0.1-0.1c0,0-0.1-0.1-0.1-0.1L88,63.8c0,0-0.1-0.1-0.1-0.1c0,0-0.1-0.1-0.1-0.1l-19.9-9.8
  c-0.1,0-0.1-0.1-0.2-0.1c-0.3-0.1-8.6-3-15.3,0l-14.8,5.4c0,0-0.1,0-0.1,0.1c-2.1,1-3.3,3.2-2.8,5.5c0.5,2.3,2.3,3.9,4.6,4h0
  c0.1,0,0.8,0,7.6-0.5c2.9-0.2,6-0.4,6.3-0.4c0.8,0,1.6-0.7,1.6-1.6c0-0.9-0.7-1.7-1.6-1.7c-0.1,0-0.1,0-6.4,0.4
  c-3.2,0.2-6.7,0.4-7.3,0.5c-1.1-0.1-1.4-1-1.5-1.3c-0.1-0.6,0.1-1.4,0.9-1.8l14.8-5.4c0,0,0.1,0,0.1-0.1c5.2-2.4,12-0.2,12.8,0
  l8.9,4.4l-4.9,11.5c-2.4-1.5-5.3-1.9-8-1.1l-19.9,6c-2.4,0.7-5,0.5-7.2-0.7L4.1,59.9C3,59.3,3.3,58.3,3.4,58
  c0.1-0.3,0.6-1.2,1.7-0.9l24.3,8.1c0.9,0.3,1.8-0.2,2.1-1c0.3-0.9-0.2-1.8-1-2.1L6.1,54c0,0-0.1,0-0.1,0c-2.4-0.7-4.7,0.5-5.7,2.8
  c-0.9,2.3-0.1,4.8,2.2,6l31.2,17c2.9,1.6,6.5,2,9.7,1l19.9-6c1.8-0.5,3.8-0.3,5.4,0.7l10.2,6.4C79,82,79,82,79.1,82c0,0,0,0,0,0h0
  c0,0,0,0,0.1,0c0,0,0.1,0,0.1,0.1c0,0,0.1,0,0.1,0c0,0,0.1,0,0.1,0c0,0,0.1,0,0.1,0c0.1,0,0.1,0,0.2,0c0.1,0,0.1,0,0.2,0
  c0,0,0.1,0,0.1,0c0.1,0,0.1,0,0.1,0c0,0,0.1,0,0.1,0c0,0,0.1,0,0.1-0.1c0,0,0.1,0,0.1,0c0,0,0.1,0,0.1-0.1c0,0,0.1,0,0.1,0
  c0,0,0.1-0.1,0.1-0.1c0,0,0.1,0,0.1-0.1l0.1-0.1l0.1-0.1c0,0,0.1-0.1,0.1-0.1c0,0,0-0.1,0.1-0.1c0,0,0,0,0,0c0,0,0,0,0,0
  c0,0,0.1-0.1,0.1-0.1l7.2-15.4c0-0.1,0-0.1,0.1-0.1c0-0.1,0-0.1,0.1-0.1c0-0.1,0-0.1,0-0.2c0-0.1,0-0.1,0-0.2c0-0.1,0-0.1,0-0.2
  C88.7,65,88.7,64.9,88.7,64.9z M79.1,78.2l-5.8-3.7l5-11.8l6.6,3.2L79.1,78.2z"/>
 <path id="XMLID_22_" class="st2" d="M30.1,52.9c14.6,0,26.4-11.9,26.4-26.4S44.7,0,30.1,0C15.6,0,3.7,11.9,3.7,26.4
  C3.7,41,15.6,52.9,30.1,52.9z M30.1,3.3c12.8,0,23.1,10.4,23.1,23.1S42.9,49.6,30.1,49.6C17.4,49.6,7,39.2,7,26.4
  S17.4,3.3,30.1,3.3z"/>
 <path id="XMLID_16_" class="st2" d="M20.4,25.4c-1.3,0-2.4,0.6-2.4,1.4c0,0.8,1.1,1.4,2.4,1.4h0.9v7.4c0,0.6,0.5,1.1,1.1,1.1
  c0.6,0,1.1-0.5,1.1-1.1v-7.4h6.6l5.3,8.1c0.2,0.3,0.5,0.5,0.9,0.5c0.6,0,1.2-0.5,1.2-1.2v-7.4H38c1.3,0,2.4-0.6,2.4-1.4
  c0-0.8-1.1-1.4-2.4-1.4h-0.5v-1.2H38c1.3,0,2.4-0.6,2.4-1.4c0-0.8-1.1-1.4-2.4-1.4h-0.5v-7c0-0.6-0.5-1.1-1.1-1.1
  c-0.6,0-1.1,0.5-1.1,1.1v7h-6.9l-5.1-7.6c-0.2-0.2-0.5-0.5-0.9-0.5c-0.6,0-1.1,0.5-1.1,1.1v7h-0.9c-1.3,0-2.4,0.6-2.4,1.4
  c0,0.8,1.1,1.4,2.4,1.4h0.9v1.2H20.4z M35.3,31.9l-2.5-3.7h2.5V31.9z M35.3,24.2v1.2H31l-0.8-1.2H35.3z M23.5,18.3l2.1,3.2h-2.1
  V18.3z M23.5,24.2h3.9l0.8,1.2h-4.8V24.2z"/>
</g>
</svg>