<!-- Generator: Adobe Illustrator 19.0.0, SVG Export Plug-In  -->
<svg version="1.1"
  xmlns="http://www.w3.org/2000/svg" xmlns:xlink="http://www.w3.org/1999/xlink" xmlns:a="http://ns.adobe.com/AdobeSVGViewerExtensions/3.0/"
  x="0px" y="0px" width="11.8px" height="19.4px" viewBox="0 0 11.8 19.4" style="enable-background:new 0 0 11.8 19.4;"
  xml:space="preserve">
<style type="text/css">
 .st0{fill:none;stroke:#000000;stroke-miterlimit:10;}
</style>
<defs>
</defs>
<g id="XMLID_15_">
 <path id="XMLID_17_" class="st0" d="M3.8,6.2c-1.1,0-2.1,0-3.2,0C0.6,5.6,0.6,5,0.7,4.5c0.1-1,0.5-1.9,1.2-2.6
  c0.7-0.7,1.5-1.1,2.4-1.2C5.6,0.4,7,0.4,8.3,1c1.2,0.5,2.2,1.2,2.6,2.5c0.6,1.5,0.5,3.1-0.4,4.4c-0.3,0.5-0.8,0.9-1.2,1.2
  c-0.4,0.4-0.8,0.7-1.2,1c-0.6,0.5-1,1.1-1,1.9c0,0.2,0,0.4,0,0.6C7,12.9,6.9,13,6.6,13c-0.4,0-0.9,0-1.3,0c-0.4,0-0.7,0-1.1,0
  c-0.3,0-0.4-0.1-0.4-0.4c0-0.9,0.1-1.8,0.6-2.6c0.3-0.6,0.8-1.1,1.4-1.5c0.4-0.3,0.9-0.6,1.3-1c0.9-0.9,1.1-1.9,0.7-3
  c-0.4-1-1.3-1.4-2.4-1.2c-0.8,0.2-1.5,1-1.5,2C3.8,5.6,3.8,5.9,3.8,6.2z"/>
 <path id="XMLID_16_" class="st0" d="M3.3,16.9c0-1.2,0.8-2.1,2-2.1c1.2,0,2,0.9,2,2.1c0,1.2-0.8,2-2,2C4.1,18.9,3.3,18,3.3,16.9z"
  />
</g>
</svg>