<!-- Generator: Adobe Illustrator 19.0.0, SVG Export Plug-In  -->
<svg version="1.1"
  xmlns="http://www.w3.org/2000/svg" xmlns:xlink="http://www.w3.org/1999/xlink" xmlns:a="http://ns.adobe.com/AdobeSVGViewerExtensions/3.0/"
  x="0px" y="0px" width="42.2px" height="20.3px" viewBox="0 0 42.2 20.3" style="enable-background:new 0 0 42.2 20.3;"
  xml:space="preserve">
<style type="text/css">
 .st0{fill:#FFFFFF;}
</style>
<defs>
</defs>
<g id="XMLID_15_">
 <g id="XMLID_17_">
  <path id="XMLID_22_" class="st0" d="M8.1,17.1h6.1L12.3,19c-0.3,0.3-0.3,0.8,0,1.1c0.2,0.2,0.4,0.2,0.6,0.2c0.2,0,0.4-0.1,0.6-0.2
   l3.2-3.2c0.3-0.3,0.3-0.8,0-1.1l-3.2-3.2c-0.3-0.3-0.8-0.3-1.1,0c-0.3,0.3-0.3,0.8,0,1.1l1.9,1.9H8.1c-3.6,0-6.5-2.9-6.5-6.5V5.1
   c0-0.4-0.4-0.8-0.8-0.8C0.4,4.3,0,4.7,0,5.1V9C0,13.4,3.6,17.1,8.1,17.1L8.1,17.1z M8.1,17.1"/>
  <path id="XMLID_18_" class="st0" d="M42.2,19.6V0.8c0-0.4-0.4-0.8-0.8-0.8H22.6c-0.4,0-0.8,0.4-0.8,0.8v18.8
   c0,0.4,0.4,0.8,0.8,0.8h18.8C41.8,20.3,42.2,20,42.2,19.6L42.2,19.6z M40.6,18.8H23.4V1.6h17.2V18.8z M40.6,18.8"/>
 </g>
</g>
</svg>