<!-- Generator: Adobe Illustrator 19.0.0, SVG Export Plug-In  -->
<svg version="1.1"
  xmlns="http://www.w3.org/2000/svg" xmlns:xlink="http://www.w3.org/1999/xlink" xmlns:a="http://ns.adobe.com/AdobeSVGViewerExtensions/3.0/"
  x="0px" y="0px" width="21px" height="24px" viewBox="0 0 21 24" style="enable-background:new 0 0 21 24;" xml:space="preserve">
<style type="text/css">
 .st0{fill:none;stroke:#FFFFFF;stroke-miterlimit:10;}
 .st1{fill:#FFFFFF;}
</style>
<defs>
</defs>
<g id="XMLID_15_">
 <path id="XMLID_40_" class="st0" d="M20.5,6.9V1.7c0-0.7-0.5-1.2-1.2-1.2H1.7C1,0.5,0.5,1,0.5,1.7v7.7h0v13c0,0.7,0.5,1.2,1.2,1.2
  h17.6c0.7,0,1.2-0.5,1.2-1.2L20.5,6.9L20.5,6.9z"/>
 <path id="XMLID_32_" class="st1" d="M15.6,11.9H5.4c-0.4,0-0.7,0.3-0.7,0.7c0,0.4,0.3,0.7,0.7,0.7h10.3c0.4,0,0.7-0.3,0.7-0.7
  C16.3,12.2,16,11.9,15.6,11.9L15.6,11.9z M15.6,11.9"/>
 <path id="XMLID_24_" class="st1" d="M15.6,16H5.4c-0.4,0-0.7,0.3-0.7,0.7c0,0.4,0.3,0.7,0.7,0.7h10.3c0.4,0,0.7-0.3,0.7-0.7
  C16.3,16.3,16,16,15.6,16L15.6,16z M15.6,16"/>
 <path id="XMLID_16_" class="st1" d="M15.6,7.8H5.4C5,7.8,4.7,8.1,4.7,8.4c0,0.4,0.3,0.7,0.7,0.7h10.3c0.4,0,0.7-0.3,0.7-0.7
  C16.3,8.1,16,7.8,15.6,7.8L15.6,7.8z M15.6,7.8"/>
</g>
</svg>