<!-- Generator: Adobe Illustrator 21.1.0, SVG Export Plug-In  -->
<svg version="1.1"
  xmlns="http://www.w3.org/2000/svg" xmlns:xlink="http://www.w3.org/1999/xlink" xmlns:a="http://ns.adobe.com/AdobeSVGViewerExtensions/3.0/"
  x="0px" y="0px" width="46.1px" height="45.8px" viewBox="0 0 46.1 45.8"
  style="overflow:scroll;enable-background:new 0 0 46.1 45.8;" xml:space="preserve">
<style type="text/css">
 .st0{fill:#356AFE;}
</style>
<defs>
</defs>
<g>
 <path d="M0,35.8c0-0.1,0.1-0.1,0.1-0.2c0.2-1.3,1-2.1,2.1-2.7c1.2-0.6,2.4-1.2,3.7-1.8c0.7-0.3,0.9-1.2,0.4-1.8
  c-0.6-0.8-1-1.7-1.1-2.7c-0.1-1.2-0.2-2.4,0.2-3.6c1.1-3,4.7-3.8,6.9-1.7c1,0.9,1.4,2,1.4,3.4c0,1.2,0.1,2.4-0.5,3.5
  c-0.2,0.4-0.5,0.8-0.7,1.2c-0.4,0.6-0.3,1.4,0.4,1.7c0.5,0.3,1.1,0.5,1.6,0.8c0.2,0.1,0.4,0.1,0.6,0c1-0.5,2.1-1,3.1-1.5
  c0.2-0.1,0.5-0.4,0.5-0.7c0.1-0.9,0-1.7,0-2.6c0-0.1-0.1-0.3-0.2-0.4c-1.1-1.2-1.6-2.6-1.9-4.2c0-0.2-0.2-0.4-0.3-0.6
  c-0.1-0.3-0.4-0.5-0.4-0.8c0-1.7-0.1-3.3,0.1-5c0.5-3.5,3.5-6,7.1-5.9c4,0.1,6.9,3,7,7c0,1.2,0,2.4,0,3.6c0,0.5-0.2,0.9-0.5,1.2
  c-0.1,0.1-0.2,0.4-0.2,0.5c-0.2,1.6-0.8,3.1-1.9,4.3c-0.1,0.1-0.2,0.3-0.2,0.4c0,0.7,0,1.5,0,2.2c0,0.5,0.2,0.8,0.6,1
  c1,0.5,2,1,3,1.4c0.2,0.1,0.5,0.1,0.7,0c0.6-0.2,1.1-0.5,1.7-0.8c0.6-0.3,0.8-1.2,0.4-1.7c-0.8-1-1.2-2.2-1.2-3.5c0-1-0.1-2,0.3-3
  c0.6-1.7,2.6-2.9,4.4-2.8c2,0.1,3.9,2,3.9,4.2c0,1.3,0.1,2.6-0.5,3.8c-0.2,0.4-0.5,0.8-0.7,1.2c-0.4,0.6-0.3,1.4,0.4,1.7
  c1.2,0.6,2.5,1.2,3.7,1.9c1.6,0.8,2.3,2,2.3,3.7c0,0.3,0,0.7,0,1c0.1,0.7-0.2,1-0.8,1.2c-2.2,0.9-4.4,1.7-6.8,1.9
  c-0.3,0-0.4,0.2-0.4,0.5c0,1.3,0,2.7,0,4c0,0.2,0,0.4,0,0.6c-0.5,0-0.9,0-1.4,0c0-0.2,0-0.3,0-0.5c0-1.8,0-3.7,0-5.5
  c0.1-2-0.8-3.6-2.5-4.6c-1.3-0.8-2.8-1.5-4.1-2.2c-0.7-0.4-1.4-0.7-2.1-1.1c-0.8,2.5-2.4,4-5,3.9c-2.5-0.1-4-1.5-4.7-3.8
  c0,0-0.1,0-0.1,0C16,33,13.9,34,11.9,35.2c-1.2,0.7-2.1,1.7-2.4,3.2c-0.1,0.5-0.1,0.9-0.1,1.4c0,1.9,0,3.8,0,5.7c0,0.1,0,0.3,0,0.4
  c-0.4,0-0.9,0-1.4,0c0-0.2,0-0.4,0-0.5c0-1.4,0-2.8,0-4.2c0-0.3-0.1-0.4-0.4-0.5c-2.7-0.2-5.2-1-7.6-2.2C0,37.5,0,36.7,0,35.8z
   M17.2,20.8c0.6,0.1,0.7,0.5,0.8,1c0.1,0.8,0.3,1.7,0.6,2.4c1.1,2.9,4.6,4,7.1,2.2c1.5-1.1,2.2-2.7,2.3-4.6c0-0.5,0.1-1,0.7-1.1
  c0-0.5,0-0.9,0-1.4c0-0.8-0.6-1.5-1.5-1.5c-0.9,0-1.8-0.1-2.4-0.9c-0.1,0.1-0.2,0.2-0.3,0.3c-0.4,0.5-0.9,0.6-1.5,0.6
  c-1.4,0-2.9,0-4.3,0c-0.9,0-1.5,0.6-1.6,1.4C17.2,19.8,17.2,20.3,17.2,20.8z M38,39.4c0.1,0,0.2,0,0.2,0c0.1,0,0.2,0,0.4,0
  c1.7-0.2,3.3-0.6,4.8-1.3c1.2-0.6,1.2-0.5,1.1-1.9c-0.1-1-0.5-1.7-1.4-2.1c-1.2-0.6-2.4-1.2-3.6-1.8c-0.6-0.3-1.1-0.8-1.3-1.5
  c0-0.1-0.1-0.2-0.1-0.3c-1,0.3-2,0.3-3.1,0c-0.1,1.4-1.2,1.7-2.3,2.3c1.4,0.7,2.7,1.5,3.7,2.5C37.5,36.5,38,37.8,38,39.4z
   M7.8,39.3c0-0.1,0.1-0.1,0.1-0.1c0-0.1,0-0.1,0-0.2C8,37.4,8.6,36,9.8,35c0.9-0.7,1.9-1.2,2.8-1.9c0.1-0.1,0.3-0.2,0.5-0.3
  c-1.1-0.5-2.1-1-2.3-2.3c-1,0.4-2,0.4-3,0c0,0.1-0.1,0.1-0.1,0.2C7.6,31.5,7,32,6.3,32.4c-1.2,0.6-2.5,1.2-3.7,1.8
  c-0.5,0.3-1,0.7-1.1,1.3c-0.1,0.6-0.1,1.3-0.1,1.9c0,0.1,0.1,0.2,0.1,0.2C3.5,38.5,5.6,39.2,7.8,39.3z M17.2,16.7
  c0.8-0.1,1.5-0.2,2.3-0.2c0.7,0,1.5-0.1,2.2,0c1.1,0.1,2.1-0.1,2.7-1.1c0,0,0,0,0,0c0.2-0.2,0.5-0.3,0.8-0.2
  c0.3,0.1,0.4,0.3,0.5,0.6c0,0.4,0.3,0.7,0.7,0.7c0.7,0.1,1.4,0.2,2.2,0.2c0.1-2.4-2.1-5.1-5.5-5.3C20.1,11.2,17.3,13.8,17.2,16.7z
   M33.7,25.1c0,0-0.1,0-0.1,0c0.2,0.8,0.2,1.6,0.5,2.4c0.4,1.1,1.2,1.8,2.5,1.9c1.1,0,2.1-0.7,2.5-1.8c0.5-1.1,0.5-2.3,0.3-3.5
  c-0.2-1.4-1.4-2.5-2.7-2.5c-1.3-0.1-2.6,0.9-2.9,2.3C33.7,24.2,33.7,24.7,33.7,25.1z M12.2,25.2c0-0.4,0-0.8-0.1-1.2
  c-0.2-1.4-1.5-2.6-2.9-2.5c-1.5,0.1-2.7,1.3-2.8,2.7c0,0.6,0,1.2,0,1.8c0,0.7,0.2,1.4,0.6,2c1,1.7,3.1,1.8,4.3,0.3
  C12.1,27.4,12.2,26.3,12.2,25.2z M25.8,28c-1.9,0.9-3.8,0.9-5.7,0c0,0.4,0,0.8,0,1.1c0,0.7-0.1,1.4-0.6,2c-0.1,0.1-0.1,0.3-0.1,0.4
  c0.3,1.7,1.8,2.9,3.5,3c1.6,0,3.2-1.2,3.5-2.8c0.1-0.3,0-0.5-0.1-0.8c-0.2-0.3-0.4-0.7-0.4-1.1C25.8,29.2,25.8,28.6,25.8,28z"/>
 <path d="M0,0c7.4,0,14.8,0,22.3,0c0.2,0,0.4,0,0.6,0c0,2.9,0,5.7,0,8.5c-0.4,0-0.9,0-1.4,0c0-2.4,0-4.7,0-7.1c-6.7,0-13.4,0-20.1,0
  c0,4.3,0,8.5,0,12.9c0.7,0,1.4,0,2.1,0c0,0.6,0,1.2,0,1.9c0.5-0.5,1-0.9,1.3-1.3c0.4-0.4,0.8-0.6,1.3-0.6c2.5,0,5,0,7.6,0
  c0.4,0,0.6,0.1,0.5,0.5c0,0.3,0,0.5,0,0.9c-0.2,0-0.4,0-0.6,0c-2.4,0-4.9,0-7.3,0c-0.2,0-0.5,0.1-0.7,0.3c-0.8,0.7-1.5,1.5-2.2,2.2
  c-0.3,0.3-0.5,0.5-0.9,0.3c-0.4-0.2-0.4-0.5-0.4-0.9c0-0.6,0-1.3,0-2c-0.7,0-1.5,0-2.2,0C0,10.5,0,5.2,0,0z"/>
 <path d="M27.3,6.5c6.2,0,12.3,0,18.5,0c0,3.8,0,7.6,0,11.4c-0.7,0-1.4,0-2.1,0c0,0.7,0,1.3,0,2c0,0.2,0,0.4-0.1,0.6
  c-0.3,0.4-0.7,0.4-1.1,0c-0.7-0.7-1.5-1.5-2.2-2.2c-0.3-0.3-0.5-0.4-0.9-0.4c-2.4,0-4.8,0-7.2,0c-0.2,0-0.4,0-0.5,0
  c0-0.5,0-0.9,0-1.4c0.2,0,0.3,0,0.4,0c2.6,0,5.2,0,7.8,0c0.4,0,0.8,0.1,1.1,0.5c0.4,0.5,0.9,0.9,1.3,1.4c0,0,0.1,0,0.1-0.1
  c0-0.6,0-1.1,0-1.8c0.6,0,1.2,0,1.8,0c0.3,0,0.4-0.1,0.4-0.4c0-2.6,0-5.2,0-7.9c0-0.4-0.2-0.4-0.5-0.4c-4.8,0-9.5,0-14.3,0
  c-0.3,0-0.7,0-1,0c0,0.7,0,1.4,0,2.1c-0.5,0-0.9,0-1.4,0C27.3,8.8,27.3,7.7,27.3,6.5z"/>
 <path class="st0" d="M4.4,5.7c0-0.4,0-0.8,0-1.3c4.7,0,9.5,0,14.2,0c0,0.4,0,0.8,0,1.3C13.8,5.7,9.1,5.7,4.4,5.7z"/>
 <path class="st0" d="M18.6,8.5c-4.7,0-9.5,0-14.2,0c0-0.4,0-0.9,0-1.3c4.7,0,9.5,0,14.2,0C18.6,7.7,18.6,8.1,18.6,8.5z"/>
 <path class="st0" d="M14.3,11.4c-3.4,0-6.6,0-10,0c0-0.5,0-0.9,0-1.3c0.2,0,0.3,0,0.5,0c3,0,5.9,0,8.9,0c0.6,0,0.6,0,0.6,0.6
  C14.3,10.9,14.3,11.1,14.3,11.4z"/>
 <path d="M30.9,41.6c0.4,0,0.9,0,1.3,0c0,1.4,0,2.8,0,4.2c-0.4,0-0.9,0-1.3,0C30.9,44.4,30.9,43,30.9,41.6z"/>
 <path d="M15,45.8c-0.5,0-0.9,0-1.3,0c0-1.4,0-2.8,0-4.2c0.4,0,0.9,0,1.3,0C15,43,15,44.4,15,45.8z"/>
 <path class="st0" d="M34.4,12.8c-0.5,0-0.9,0-1.4,0c0-0.5,0-0.9,0-1.4c0.4,0,0.8,0,1.1,0c0.1,0,0.2,0.1,0.2,0.2
  C34.4,12.1,34.4,12.4,34.4,12.8z"/>
 <path class="st0" d="M35.9,12.8c0-0.4,0-0.9,0-1.3c0.4,0,0.8,0,1.2,0c0.1,0,0.2,0.1,0.2,0.2c0,0.4,0,0.7,0,1.1
  C36.8,12.8,36.4,12.8,35.9,12.8z"/>
 <path class="st0" d="M40.1,12.8c-0.5,0-0.9,0-1.3,0c0-0.4,0-0.8,0-1.3c0.4,0,0.7,0,1.1,0c0.1,0,0.2,0.1,0.2,0.2
  C40.1,12.1,40.1,12.4,40.1,12.8z"/>
</g>
</svg>