<!-- Generator: Adobe Illustrator 19.0.0, SVG Export Plug-In  -->
<svg version="1.1"
  xmlns="http://www.w3.org/2000/svg" xmlns:xlink="http://www.w3.org/1999/xlink" xmlns:a="http://ns.adobe.com/AdobeSVGViewerExtensions/3.0/"
  x="0px" y="0px" width="94.8px" height="94.7px" viewBox="0 0 94.8 94.7" style="enable-background:new 0 0 94.8 94.7;"
  xml:space="preserve">
<style type="text/css">
 .st0{fill:#FFFFFF;}
 .st1{fill:#3C92CA;}
</style>
<defs>
</defs>
<g id="XMLID_15_">
 <path id="XMLID_26_" d="M93.2,0c0.3,0.1,0.6,0.2,0.9,0.4c0.6,0.4,0.9,1,0.7,1.8C94.5,3,94,3.5,93.1,3.5c-1,0-2,0-3.1,0
  c0,0.4,0,0.8,0,1.2c0,18.2,0,36.4,0,54.6c0,2.2-0.7,4-2.8,5c-0.8,0.4-1.8,0.6-2.7,0.6c-24.7,0-49.3,0-74,0c-3.4,0-5.4-2-5.4-5.5
  c0-18.2,0-36.4,0-54.5c0-0.4,0-0.8,0-1.4c-1,0-1.9,0-2.9,0C1.2,3.6,0.4,3.2,0,2.2c0-0.3,0-0.6,0-0.9C0.6,0.9,1.1,0.4,1.7,0
  C32.2,0,62.7,0,93.2,0z M8.7,3.6c0,0.4,0,0.7,0,1c0,18.2,0,36.4,0,54.6c0,1.8,0.4,2.2,2.2,2.2c24.5,0,49,0,73.5,0
  c1.8,0,2.2-0.4,2.2-2.2c0-18.2,0-36.4,0-54.6c0-0.3,0-0.7,0-1C60.5,3.6,34.6,3.6,8.7,3.6z"/>
 <path id="XMLID_25_" class="st0" d="M1.7,0C1.1,0.4,0.6,0.9,0,1.3"/>
 <path id="XMLID_24_" d="M50.3,83c0,0.5,0,0.9,0,1.2c0,2.7,0,5.4,0,8.1c0,0.4,0,0.9-0.2,1.3c-0.3,0.8-0.9,1.1-1.8,1.1
  c-0.9-0.1-1.5-0.7-1.6-1.6c-0.1-2,0-4.1,0-6.1c0-1.2,0-2.5,0-3.9c-0.4,0.4-0.6,0.6-0.9,0.8c-3.3,3.3-6.6,6.6-9.9,9.9
  c-0.3,0.3-0.6,0.6-0.9,0.8c-0.7,0.4-1.5,0.3-2-0.3c-0.6-0.6-0.7-1.3-0.3-2c0.2-0.4,0.5-0.7,0.8-1c4.2-4.2,8.4-8.4,12.6-12.6
  c0.5-0.4,0.7-0.9,0.6-1.5c0-1.4,0-2.8,0-4.4c-0.4,0-0.7,0-1.1,0c-1.9,0-3.9,0-5.8,0c-1.3,0-2.1-0.7-2.1-1.8c0-1,0.8-1.7,2.1-1.7
  c5.7,0,11.4,0,17,0c1.3,0,2,0.6,2,1.7c0,1.1-0.7,1.8-2,1.8c-1.9,0-3.7,0-5.6,0c-0.3,0-0.7,0-1.1,0c0,1.7,0,3.4,0,5.1
  c0,0.3,0.3,0.6,0.6,0.8c4.2,4.2,8.3,8.3,12.5,12.5c0.3,0.3,0.6,0.6,0.8,1c0.4,0.7,0.3,1.6-0.3,2.1c-0.6,0.5-1.3,0.6-2,0.2
  c-0.3-0.2-0.6-0.5-0.8-0.7c-3.3-3.3-6.5-6.5-9.8-9.8C51,83.7,50.7,83.4,50.3,83z"/>
 <path id="XMLID_21_" d="M48.1,32.8c0.4,0,0.8,0,1.1,0c5.1,0,10.2,0,15.4,0c1.8,0,2.5,0.7,2.4,2.6c-0.5,7.4-3.9,13.1-10.3,17
  c-8.5,5.2-20.3,2.9-26.4-5c-6.9-8.9-5.8-20.9,2.6-28.4c3.7-3.2,8-4.9,12.9-5.1c1.6-0.1,2.3,0.6,2.3,2.2c0,5.1,0,10.2,0,15.4
  C48.1,31.9,48.1,32.3,48.1,32.8z M44.6,17.7c-6.7,0.4-15.2,6.4-15.2,16.8c0,9.7,7.7,17.2,17.1,17c10.7-0.1,16.5-9,16.7-15.2
  c-0.3,0-0.7,0-1,0c-5.1,0-10.1,0-15.2,0c-1.8,0-2.4-0.6-2.4-2.4c0-5.1,0-10.1,0-15.2C44.6,18.4,44.6,18.1,44.6,17.7z"/>
 <path id="XMLID_18_" d="M62.1,28.2c-2.3,0-4.6,0-6.9,0c-1.7,0-2.3-0.6-2.3-2.4c0-4.5,0-9.1,0-13.6c0-1.8,0.7-2.4,2.5-2.3
  c7.1,0.3,13.2,5.2,15.1,11.8c0.4,1.4,0.6,2.9,0.7,4.4c0.1,1.4-0.6,2.1-2,2.1C66.9,28.2,64.5,28.2,62.1,28.2z M67.5,24.6
  c-0.5-5.4-5.4-10.6-11-11c0,3.7,0,7.3,0,11C60.2,24.6,63.9,24.6,67.5,24.6z"/>
 <path id="XMLID_17_" class="st1" d="M44.6,17.7c0,0.4,0,0.7,0,1.1c0,5.1,0,10.1,0,15.2c0,1.8,0.6,2.4,2.4,2.4c5.1,0,10.1,0,15.2,0
  c0.3,0,0.7,0,1,0c-0.2,6.2-6,15.1-16.7,15.2c-9.4,0.1-17.2-7.4-17.1-17C29.4,24.1,37.8,18.1,44.6,17.7z"/>
 <path id="XMLID_16_" class="st1" d="M67.5,24.6c-3.7,0-7.3,0-11,0c0-3.7,0-7.4,0-11C62.1,14,67.1,19.2,67.5,24.6z"/>
</g>
</svg>