<!-- Generator: Adobe Illustrator 19.0.0, SVG Export Plug-In  -->
<svg version="1.1"
  xmlns="http://www.w3.org/2000/svg" xmlns:xlink="http://www.w3.org/1999/xlink" xmlns:a="http://ns.adobe.com/AdobeSVGViewerExtensions/3.0/"
  x="0px" y="0px" width="24.8px" height="24.7px" viewBox="0 0 24.8 24.7" style="enable-background:new 0 0 24.8 24.7;"
  xml:space="preserve">
<style type="text/css">
 .st0{fill:#FFFFFF;}
 .st1{fill:#3C92CA;}
</style>
<defs>
</defs>
<g id="XMLID_15_">
 <path id="XMLID_26_" class="st0" d="M24.3,0c0.1,0,0.2,0.1,0.2,0.1c0.2,0.1,0.2,0.3,0.2,0.5c-0.1,0.2-0.2,0.3-0.4,0.3
  c-0.3,0-0.5,0-0.8,0c0,0.1,0,0.2,0,0.3c0,4.8,0,9.5,0,14.3c0,0.6-0.2,1.1-0.7,1.3c-0.2,0.1-0.5,0.1-0.7,0.1c-6.4,0-12.9,0-19.3,0
  c-0.9,0-1.4-0.5-1.4-1.4c0-4.7,0-9.5,0-14.2c0-0.1,0-0.2,0-0.4c-0.3,0-0.5,0-0.8,0C0.3,0.9,0.1,0.8,0,0.6c0-0.1,0-0.2,0-0.2
  C0.1,0.2,0.3,0.1,0.4,0C8.4,0,16.4,0,24.3,0z M2.3,0.9c0,0.1,0,0.2,0,0.3c0,4.8,0,9.5,0,14.3c0,0.5,0.1,0.6,0.6,0.6
  c6.4,0,12.8,0,19.2,0c0.5,0,0.6-0.1,0.6-0.6c0-4.8,0-9.5,0-14.3c0-0.1,0-0.2,0-0.3C15.8,0.9,9,0.9,2.3,0.9z"/>
 <path id="XMLID_25_" class="st0" d="M0.4,0C0.3,0.1,0.1,0.2,0,0.3"/>
 <path id="XMLID_24_" class="st0" d="M13.1,21.7c0,0.1,0,0.2,0,0.3c0,0.7,0,1.4,0,2.1c0,0.1,0,0.2,0,0.3c-0.1,0.2-0.2,0.3-0.5,0.3
  c-0.2,0-0.4-0.2-0.4-0.4c0-0.5,0-1.1,0-1.6c0-0.3,0-0.6,0-1c-0.1,0.1-0.2,0.2-0.2,0.2c-0.9,0.9-1.7,1.7-2.6,2.6
  c-0.1,0.1-0.2,0.1-0.2,0.2c-0.2,0.1-0.4,0.1-0.5-0.1c-0.2-0.1-0.2-0.3-0.1-0.5c0.1-0.1,0.1-0.2,0.2-0.3c1.1-1.1,2.2-2.2,3.3-3.3
  c0.1-0.1,0.2-0.2,0.2-0.4c0-0.4,0-0.7,0-1.1c-0.1,0-0.2,0-0.3,0c-0.5,0-1,0-1.5,0c-0.3,0-0.5-0.2-0.5-0.5c0-0.3,0.2-0.5,0.5-0.5
  c1.5,0,3,0,4.4,0c0.3,0,0.5,0.2,0.5,0.4c0,0.3-0.2,0.5-0.5,0.5c-0.5,0-1,0-1.5,0c-0.1,0-0.2,0-0.3,0c0,0.5,0,0.9,0,1.3
  c0,0.1,0.1,0.1,0.1,0.2c1.1,1.1,2.2,2.2,3.3,3.3c0.1,0.1,0.2,0.2,0.2,0.3c0.1,0.2,0.1,0.4-0.1,0.6c-0.2,0.1-0.3,0.2-0.5,0.1
  c-0.1,0-0.2-0.1-0.2-0.2c-0.9-0.9-1.7-1.7-2.6-2.6C13.3,21.8,13.2,21.8,13.1,21.7z"/>
 <path id="XMLID_21_" class="st0" d="M12.6,8.6c0.1,0,0.2,0,0.3,0c1.3,0,2.7,0,4,0c0.5,0,0.6,0.2,0.6,0.7c-0.1,1.9-1,3.4-2.7,4.4
  c-2.2,1.4-5.3,0.8-6.9-1.3C6.1,10,6.4,6.9,8.6,5c1-0.8,2.1-1.3,3.4-1.3c0.4,0,0.6,0.2,0.6,0.6c0,1.3,0,2.7,0,4
  C12.6,8.3,12.6,8.4,12.6,8.6z M11.6,4.6c-1.8,0.1-4,1.7-4,4.4c0,2.5,2,4.5,4.5,4.5c2.8,0,4.3-2.4,4.4-4c-0.1,0-0.2,0-0.3,0
  c-1.3,0-2.6,0-4,0c-0.5,0-0.6-0.2-0.6-0.6c0-1.3,0-2.6,0-4C11.6,4.8,11.6,4.7,11.6,4.6z"/>
 <path id="XMLID_18_" class="st0" d="M16.2,7.4c-0.6,0-1.2,0-1.8,0c-0.5,0-0.6-0.2-0.6-0.6c0-1.2,0-2.4,0-3.6c0-0.5,0.2-0.6,0.7-0.6
  c1.9,0.1,3.5,1.3,3.9,3.1c0.1,0.4,0.1,0.8,0.2,1.1c0,0.4-0.2,0.5-0.5,0.5C17.5,7.4,16.8,7.4,16.2,7.4z M17.6,6.4
  c-0.1-1.4-1.4-2.8-2.9-2.9c0,1,0,1.9,0,2.9C15.7,6.4,16.7,6.4,17.6,6.4z"/>
 <path id="XMLID_17_" class="st1" d="M11.6,4.6c0,0.1,0,0.2,0,0.3c0,1.3,0,2.6,0,4c0,0.5,0.2,0.6,0.6,0.6c1.3,0,2.6,0,4,0
  c0.1,0,0.2,0,0.3,0c-0.1,1.6-1.6,3.9-4.4,4c-2.5,0-4.5-1.9-4.5-4.5C7.7,6.3,9.9,4.7,11.6,4.6z"/>
 <path id="XMLID_16_" class="st1" d="M17.6,6.4c-1,0-1.9,0-2.9,0c0-1,0-1.9,0-2.9C16.2,3.7,17.5,5,17.6,6.4z"/>
</g>
</svg>