<!-- Generator: Adobe Illustrator 19.0.0, SVG Export Plug-In  -->
<svg version="1.1"
  xmlns="http://www.w3.org/2000/svg" xmlns:xlink="http://www.w3.org/1999/xlink" xmlns:a="http://ns.adobe.com/AdobeSVGViewerExtensions/3.0/"
  x="0px" y="0px" width="55.4px" height="66.8px" viewBox="0 0 55.4 66.8" style="enable-background:new 0 0 55.4 66.8;"
  xml:space="preserve">
<style type="text/css">
 .st0{fill:#3C92CA;}
 .st1{clip-path:url(#XMLID_47_);}
 .st2{clip-path:url(#XMLID_48_);}
</style>
<defs>
</defs>
<g id="XMLID_15_">
 <path id="XMLID_44_" class="st0" d="M44.1,62.9l2.5-2.5l5.1,5.1l2.5-2.5v-42c0-2.4-2-4.4-4.4-4.4H14.4c2.4,0,4.4,2,4.4,4.4v42
  l2.5,2.5l2.5-2.5l2.5-2.5l2.5,2.5l2.5,2.5l5.1-5.1l2.5,2.5l2.5,2.5L44.1,62.9z M44.1,62.9"/>
 <path id="XMLID_41_" d="M25.1,27.2h23c0.7,0,1.2-0.6,1.2-1.2c0-0.7-0.6-1.2-1.2-1.2h-23c-0.7,0-1.2,0.6-1.2,1.2
  C23.9,26.6,24.4,27.2,25.1,27.2L25.1,27.2z M25.1,27.2"/>
 <path id="XMLID_38_" d="M25.1,33.8h16.7c0.7,0,1.2-0.6,1.2-1.2c0-0.7-0.6-1.2-1.2-1.2H25.1c-0.7,0-1.2,0.6-1.2,1.2
  C23.9,33.2,24.4,33.8,25.1,33.8L25.1,33.8z M25.1,33.8"/>
 <path id="XMLID_35_" d="M25.1,39.8h23c0.7,0,1.2-0.6,1.2-1.2c0-0.7-0.6-1.2-1.2-1.2h-23c-0.7,0-1.2,0.6-1.2,1.2
  C23.9,39.2,24.4,39.8,25.1,39.8L25.1,39.8z M25.1,39.8"/>
 <path id="XMLID_32_" d="M27.3,44.2h-2.2c-0.7,0-1.2,0.6-1.2,1.2c0,0.7,0.6,1.2,1.2,1.2h2.2c0.7,0,1.2-0.6,1.2-1.2
  C28.5,44.7,28,44.2,27.3,44.2L27.3,44.2z M27.3,44.2"/>
 <path id="XMLID_29_" d="M27.3,50.2h-2.2c-0.7,0-1.2,0.6-1.2,1.2c0,0.7,0.6,1.2,1.2,1.2h2.2c0.7,0,1.2-0.6,1.2-1.2
  C28.5,50.8,28,50.2,27.3,50.2L27.3,50.2z M27.3,50.2"/>
 <path id="XMLID_26_" d="M48.1,44.2H32.2c-0.7,0-1.2,0.6-1.2,1.2c0,0.7,0.6,1.2,1.2,1.2h15.9c0.7,0,1.2-0.6,1.2-1.2
  C49.3,44.7,48.8,44.2,48.1,44.2L48.1,44.2z M48.1,44.2"/>
 <g id="XMLID_16_">
  <defs>
   <rect id="XMLID_17_" width="55.4" height="66.8"/>
  </defs>
  <clipPath id="XMLID_47_">
   <use xlink:href="#XMLID_17_"  style="overflow:visible;"/>
  </clipPath>
  <path id="XMLID_23_" class="st1" d="M43,51.4c0-0.7-0.6-1.2-1.2-1.2h-9.6c-0.7,0-1.2,0.6-1.2,1.2c0,0.7,0.6,1.2,1.2,1.2h9.6
   C42.5,52.7,43,52.1,43,51.4L43,51.4z M43,51.4"/>
  <path id="XMLID_18_" class="st1" d="M40.7,66.3c0.5,0.5,1.3,0.5,1.7,0l4.2-4.2l4.2,4.2c0.2,0.2,0.6,0.4,0.9,0.4
   c0.3,0,0.6-0.1,0.9-0.4l2.5-2.5c0.2-0.2,0.4-0.5,0.4-0.9v-42c0-3.1-2.5-5.6-5.6-5.6h-9.5V1.4c0-0.7-0.6-1.2-1.2-1.2H1.2
   C0.6,0.1,0,0.7,0,1.4v42C0,46.5,2.5,49,5.6,49h7.1c0.7,0,1.2-0.6,1.2-1.2c0-0.7-0.6-1.2-1.2-1.2h-2.5c0.6-0.9,1-2,1-3.2V20.8
   c0-1.7,1.4-3.2,3.2-3.2c1.7,0,3.2,1.4,3.2,3.2v42c0,0.1,0,0.2,0,0.2c0,0.1,0,0.1,0,0.1c0,0,0,0.1,0,0.1c0,0.1,0.1,0.1,0.1,0.1
   c0,0,0,0,0,0.1c0,0.1,0.1,0.1,0.1,0.2l2.5,2.5c0.5,0.5,1.3,0.5,1.7,0l4.2-4.2l4.2,4.2c0.5,0.5,1.3,0.5,1.7,0l4.2-4.2L40.7,66.3z
    M8.8,20.8v22.5c0,1.7-1.4,3.2-3.2,3.2c-1.7,0-3.2-1.4-3.2-3.2V2.6h35.4v12.6H14.4C11.3,15.2,8.8,17.7,8.8,20.8L8.8,20.8z
    M31.4,63.6l-4.2-4.2c-0.2-0.2-0.6-0.4-0.9-0.4s-0.6,0.1-0.9,0.4l-4.2,4.2L20,62.3V20.8c0-0.2,0-0.4,0-0.5c0-0.1,0-0.1,0-0.1
   c0-0.1,0-0.2-0.1-0.4c0-0.1,0-0.1,0-0.2c0-0.1-0.1-0.3-0.1-0.5c0,0,0,0,0,0c-0.1-0.2-0.1-0.3-0.2-0.5c0,0,0-0.1-0.1-0.1
   c-0.1-0.1-0.1-0.2-0.2-0.3c0,0,0-0.1-0.1-0.1c-0.1-0.1-0.1-0.3-0.2-0.4c0,0,0,0,0,0v0h30.7c1.7,0,3.2,1.4,3.2,3.2v41.5l-1.3,1.3
   l-4.2-4.2c-0.5-0.5-1.3-0.5-1.7,0l-4.2,4.2l-4.1-4.2c-0.5-0.5-1.3-0.5-1.7,0L31.4,63.6z M31.4,63.6"/>
 </g>
</g>
</svg>