<!-- Generator: Adobe Illustrator 21.1.0, SVG Export Plug-In  -->
<svg version="1.1"
  xmlns="http://www.w3.org/2000/svg" xmlns:xlink="http://www.w3.org/1999/xlink" xmlns:a="http://ns.adobe.com/AdobeSVGViewerExtensions/3.0/"
  x="0px" y="0px" width="83.1px" height="45.5px" viewBox="0 0 83.1 45.5"
  style="overflow:scroll;enable-background:new 0 0 83.1 45.5;" xml:space="preserve">
<style type="text/css">
 .st0{fill:#1D1D1B;}
 .st1{fill:#356AFE;}
</style>
<defs>
</defs>
<g>
 <g id="XMLID_10_">
  <g id="XMLID_18_">
   <path class="st0" d="M31.2,45.5H0V0h31.2V45.5z M2.6,42.9h26V2.6h-26V42.9z"/>
  </g>
  <g id="XMLID_17_">
   <rect x="6.5" y="6.5" class="st1" width="18.2" height="2.6"/>
  </g>
  <g id="XMLID_16_">
   <rect x="6.5" y="16.9" class="st1" width="18.2" height="2.6"/>
  </g>
  <g id="XMLID_15_">
   <rect x="6.5" y="27.3" class="st1" width="18.2" height="2.6"/>
  </g>
  <g id="XMLID_14_">
   <rect x="6.5" y="32.5" class="st1" width="18.2" height="2.6"/>
  </g>
  <g id="XMLID_13_">
   <rect x="6.5" y="22.1" class="st1" width="18.2" height="2.6"/>
  </g>
  <g id="XMLID_12_">
   <rect x="6.5" y="37.7" class="st1" width="18.2" height="2.6"/>
  </g>
  <g id="XMLID_11_">
   <rect x="13" y="11.7" class="st1" width="5.2" height="2.6"/>
  </g>
 </g>
 <g id="XMLID_1_">
  <g id="XMLID_9_">
   <path class="st0" d="M83.1,45.5H52V0h31.2V45.5z M54.5,42.9h26V2.6h-26V42.9z"/>
  </g>
  <g id="XMLID_8_">
   <rect x="58.4" y="6.5" class="st1" width="18.2" height="2.6"/>
  </g>
  <g id="XMLID_7_">
   <rect x="58.4" y="16.9" class="st1" width="18.2" height="2.6"/>
  </g>
  <g id="XMLID_6_">
   <rect x="58.4" y="27.3" class="st1" width="18.2" height="2.6"/>
  </g>
  <g id="XMLID_5_">
   <rect x="58.4" y="32.5" class="st1" width="18.2" height="2.6"/>
  </g>
  <g id="XMLID_4_">
   <rect x="58.4" y="22.1" class="st1" width="18.2" height="2.6"/>
  </g>
  <g id="XMLID_3_">
   <rect x="58.4" y="37.7" class="st1" width="18.2" height="2.6"/>
  </g>
  <g id="XMLID_2_">
   <rect x="64.9" y="11.7" class="st1" width="5.2" height="2.6"/>
  </g>
 </g>
 <g>
  <polygon class="st1" points="43.2,19.9 45.1,21.7 49.9,16.9 45.1,12.1 43.2,13.9 44.9,15.6 33.8,15.6 33.8,18.2 44.9,18.2   "/>
  <polygon class="st1" points="39.9,24.3 38,22.5 33.2,27.3 38,32.1 39.9,30.3 38.2,28.6 49.4,28.6 49.4,26 38.2,26   "/>
 </g>
</g>
</svg>