<!-- Generator: Adobe Illustrator 21.1.0, SVG Export Plug-In  -->
<svg version="1.1"
  xmlns="http://www.w3.org/2000/svg" xmlns:xlink="http://www.w3.org/1999/xlink" xmlns:a="http://ns.adobe.com/AdobeSVGViewerExtensions/3.0/"
  x="0px" y="0px" width="85.3px" height="46.7px" viewBox="0 0 85.3 46.7"
  style="overflow:scroll;enable-background:new 0 0 85.3 46.7;" xml:space="preserve">
<style type="text/css">
 .st0{fill:#FFFFFF;}
</style>
<defs>
</defs>
<g>
 <g id="XMLID_10_">
  <g id="XMLID_18_">
   <path class="st0" d="M32,46.7H0V0h32V46.7z M2.7,44h26.7V2.7H2.7V44z"/>
  </g>
  <g id="XMLID_17_">
   <rect x="6.7" y="6.7" class="st0" width="18.7" height="2.7"/>
  </g>
  <g id="XMLID_16_">
   <rect x="6.7" y="17.3" class="st0" width="18.7" height="2.7"/>
  </g>
  <g id="XMLID_15_">
   <rect x="6.7" y="28" class="st0" width="18.7" height="2.7"/>
  </g>
  <g id="XMLID_14_">
   <rect x="6.7" y="33.3" class="st0" width="18.7" height="2.7"/>
  </g>
  <g id="XMLID_13_">
   <rect x="6.7" y="22.7" class="st0" width="18.7" height="2.7"/>
  </g>
  <g id="XMLID_12_">
   <rect x="6.7" y="38.7" class="st0" width="18.7" height="2.7"/>
  </g>
  <g id="XMLID_11_">
   <rect x="13.3" y="12" class="st0" width="5.3" height="2.7"/>
  </g>
 </g>
 <g id="XMLID_1_">
  <g id="XMLID_9_">
   <path class="st0" d="M85.3,46.7h-32V0h32V46.7z M56,44h26.7V2.7H56V44z"/>
  </g>
  <g id="XMLID_8_">
   <rect x="60" y="6.7" class="st0" width="18.7" height="2.7"/>
  </g>
  <g id="XMLID_7_">
   <rect x="60" y="17.3" class="st0" width="18.7" height="2.7"/>
  </g>
  <g id="XMLID_6_">
   <rect x="60" y="28" class="st0" width="18.7" height="2.7"/>
  </g>
  <g id="XMLID_5_">
   <rect x="60" y="33.3" class="st0" width="18.7" height="2.7"/>
  </g>
  <g id="XMLID_4_">
   <rect x="60" y="22.7" class="st0" width="18.7" height="2.7"/>
  </g>
  <g id="XMLID_3_">
   <rect x="60" y="38.7" class="st0" width="18.7" height="2.7"/>
  </g>
  <g id="XMLID_2_">
   <rect x="66.7" y="12" class="st0" width="5.3" height="2.7"/>
  </g>
 </g>
 <g>
  <polygon class="st0" points="44.4,20.4 46.3,22.3 51.2,17.3 46.3,12.4 44.4,14.3 46.1,16 34.7,16 34.7,18.7 46.1,18.7   "/>
  <polygon class="st0" points="40.9,24.9 39.1,23.1 34.1,28 39.1,32.9 40.9,31.1 39.2,29.3 50.7,29.3 50.7,26.7 39.2,26.7   "/>
 </g>
</g>
</svg>